<svg xmlns="http://www.w3.org/2000/svg" viewBox="0 0 1291 488" width="1291" height="488" role="img" aria-label="طيار">
  <defs>
    <linearGradient id="tayarBlue" gradientUnits="userSpaceOnUse" x1="2810.0" y1="3240.0" x2="6560.0" y2="1060.0">
      <stop offset="0%" stop-color="#0363ED"/>
      <stop offset="100%" stop-color="#0A41AE"/>
    </linearGradient>
    <linearGradient id="tayarOrange" gradientUnits="userSpaceOnUse" x1="9110.0" y1="2110.0" x2="12300.0" y2="3940.0">
      <stop offset="0%" stop-color="#EB6410"/>
      <stop offset="100%" stop-color="#FC7406"/>
    </linearGradient>
  </defs>
  <g transform="translate(0,488) scale(0.1,-0.1)">
    <g fill="url(#tayarBlue)">
      <path d="M6810 4522 c-30 -15 -80 -38 -110 -51 -303 -129 -457 -237 -523 -367 -16 -31 -37 -111 -56 -205 -28 -140 -149 -740 -301 -1484 -32 -159 -84 -414 -115 -565 -31 -151 -60 -292 -66 -313 l-10 -39 -247 4 c-228 3 -251 5 -304 26 -102 41 -168 133 -168 236 0 34 22 158 80 456 6 30 15 69 21 86 5 17 9 40 9 52 0 12 7 48 15 80 8 31 31 143 50 247 19 105 40 209 46 232 11 43 7 63 -14 63 -7 0 -79 -29 -162 -64 -316 -134 -386 -179 -420 -269 -8 -23 -47 -198 -85 -388 -38 -190 -78 -371 -90 -402 -78 -207 -297 -346 -575 -363 -224 -15 -388 51 -455 182 -21 41 -26 66 -28 149 -4 104 -3 108 58 375 16 74 44 203 61 285 17 83 35 166 39 185 22 92 62 277 86 390 14 69 30 141 35 160 10 41 79 351 94 425 4 17 20 84 35 150 16 66 43 190 60 275 17 85 35 169 40 185 27 93 61 255 55 264 -10 17 -23 14 -102 -24 -41 -19 -76 -35 -79 -35 -14 0 -323 -155 -360 -181 -67 -46 -152 -137 -179 -194 -26 -53 -41 -120 -176 -780 -43 -214 -86 -419 -94 -455 -8 -36 -44 -207 -79 -380 -36 -173 -80 -380 -97 -460 -44 -203 -51 -378 -19 -505 37 -148 84 -236 179 -338 84 -90 195 -158 341 -207 130 -43 223 -53 443 -47 196 5 273 18 415 71 84 31 218 107 292 166 41 33 82 60 90 60 9 0 39 -27 68 -60 84 -95 207 -168 357 -212 l80 -23 1075 -3 c660 -2 1133 1 1225 7 175 12 261 36 445 123 193 91 315 185 455 353 48 57 151 221 174 275 17 42 61 188 61 203 0 24 71 229 97 282 47 94 127 220 200 317 69 91 228 252 283 286 14 9 43 30 65 47 56 44 147 97 310 181 l140 71 12 48 c7 26 17 95 22 154 6 58 16 150 22 204 16 135 17 133 -132 107 -239 -41 -492 -157 -724 -330 -154 -116 -353 -334 -439 -482 -15 -27 -33 -48 -38 -48 -6 0 -43 31 -83 69 -112 106 -251 178 -421 217 -109 25 -358 26 -464 1 -177 -42 -320 -100 -460 -186 -81 -50 -207 -149 -244 -190 -22 -24 -46 -28 -46 -7 0 17 58 281 110 501 27 113 46 199 66 295 9 41 20 93 25 115 6 22 14 58 18 80 4 22 15 67 24 100 9 33 28 116 42 185 15 69 31 144 36 168 5 23 13 61 18 85 5 23 25 112 45 197 20 85 36 167 36 183 0 35 -18 34 -90 -1z m665 -2084 c136 -28 253 -118 308 -235 28 -61 31 -78 31 -158 1 -108 -26 -195 -86 -285 -77 -116 -217 -213 -348 -240 -70 -15 -1108 -26 -1122 -12 -11 11 17 129 57 237 31 87 110 219 183 305 247 295 654 457 977 388z"/>
      <path d="M2275 3123 c-294 -117 -457 -197 -522 -256 -86 -79 -105 -130 -158 -432 -113 -636 -184 -992 -215 -1080 -105 -296 -308 -514 -590 -632 -139 -59 -308 -93 -456 -93 -84 0 -91 -2 -102 -22 -6 -13 -41 -117 -77 -233 -37 -116 -73 -231 -82 -257 -25 -77 -23 -78 129 -77 375 1 637 56 913 189 191 93 292 165 445 320 151 151 229 258 312 425 94 187 135 322 193 635 20 107 48 249 61 315 14 66 45 224 69 350 47 242 56 288 86 425 10 47 28 137 39 200 11 63 25 139 31 167 15 78 2 87 -76 56z"/>
      <path d="M3670 651 c-98 -30 -211 -128 -253 -218 -17 -37 -22 -67 -22 -133 0 -74 3 -91 27 -131 27 -46 79 -89 131 -108 16 -6 66 -11 113 -11 76 0 91 3 152 34 133 68 206 180 206 316 -1 85 -20 134 -76 187 -51 49 -112 73 -188 72 -36 0 -76 -4 -90 -8z"/>
      <path d="M4381 640 c-174 -63 -286 -255 -241 -415 16 -58 74 -123 135 -154 73 -36 178 -34 268 7 92 42 165 117 196 200 46 122 15 260 -74 328 -74 56 -185 70 -284 34z"/>
    </g>
    <g fill="url(#tayarOrange)">
      <path d="M12785 4808 c-35 -11 -116 -33 -195 -52 -30 -8 -109 -28 -175 -46 -66 -17 -145 -37 -175 -45 -52 -12 -120 -30 -408 -105 -113 -30 -157 -41 -287 -73 -33 -9 -114 -29 -180 -47 -66 -17 -147 -38 -180 -46 -56 -14 -83 -21 -235 -59 -30 -7 -82 -21 -115 -30 -33 -9 -75 -19 -92 -22 -46 -7 -44 -36 5 -56 34 -14 131 -59 360 -168 45 -22 82 -45 82 -53 0 -8 -17 -20 -37 -27 -21 -6 -42 -15 -48 -19 -11 -8 -238 -85 -350 -119 -111 -33 -347 -90 -460 -112 -195 -36 -311 -55 -525 -84 -177 -23 -250 -37 -250 -46 0 -5 5 -17 11 -27 8 -13 8 -43 0 -112 -7 -52 -16 -142 -22 -200 -5 -58 -16 -132 -24 -164 -9 -32 -13 -61 -11 -64 3 -2 52 7 108 21 103 26 202 45 353 67 629 93 1082 226 1558 460 69 34 135 60 147 58 17 -2 32 -30 76 -138 119 -295 240 -570 249 -570 6 0 43 69 82 153 117 248 663 1401 767 1619 25 53 46 101 46 107 0 13 -34 13 -75 -1z"/>
      <path d="M11329 3131 c-292 -222 -631 -385 -1064 -511 -55 -16 -251 -67 -435 -114 -184 -47 -373 -98 -420 -114 -145 -50 -240 -94 -240 -110 0 -13 35 -14 283 -9 155 3 338 11 407 17 237 20 601 80 754 125 95 29 100 12 16 -60 -144 -123 -412 -273 -665 -373 -188 -73 -404 -138 -819 -244 -207 -52 -366 -98 -366 -104 0 -6 28 -14 68 -17 107 -11 600 -8 713 3 560 57 933 196 1266 473 266 221 507 613 629 1021 27 90 30 116 12 115 -7 -1 -70 -45 -139 -98z"/>
      <path d="M10231 1533 c-281 -109 -657 -193 -1005 -223 -66 -6 -353 -10 -638 -10 l-519 1 -53 -48 c-123 -112 -351 -239 -528 -294 -148 -45 -120 -49 370 -49 1122 -2 1335 1 1448 15 342 45 642 180 873 391 78 72 211 230 211 251 0 21 -39 13 -159 -34z"/>
    </g>
  </g>
</svg>
